# xmcd
#
# Track frame offsets: 
#        150
#        17212
#        37850
#        57737
#        77870
#        92210
#        112327
#        132447
#        152982
#        180087
#        198934
#        217325
#
# Disc length: 3107 seconds
#
# Revision: 2
# Processed by: cddbd v1.5.2PL0 Copyright (c) Steve Scherf et al.
# Submitted via: ExactAudioCopy v0.99pb5
#
DISCID=ae0c210c
DTITLE=Joanna Connor - Big Girl Blues
DYEAR=1996
DGENRE=Blues
TTITLE0=Big Girl Blues
TTITLE1=43rd St.
TTITLE2=Fly Away
TTITLE3=They Love Each Other
TTITLE4=Sweet Baby
TTITLE5=You Should Be My Lover
TTITLE6=Sister Spirit
TTITLE7=You Oughta Know
TTITLE8=Heart Of The Blues
TTITLE9=Juicy
TTITLE10=Meditations
TTITLE11=Smoke It Up
EXTD=
EXTT0=
EXTT1=
EXTT2=
EXTT3=
EXTT4=
EXTT5=
EXTT6=
EXTT7=
EXTT8=
EXTT9=
EXTT10=
EXTT11=
PLAYORDER=
